<svg width="48" height="48" viewBox="0 0 512 512" xmlns="http://www.w3.org/2000/svg">
  <!-- Background -->
  <rect width="512" height="512" rx="60" fill="#02040A"/>
  <!-- Logo -->
  <path d="M123.299 106.313C123.299 96.7511 131.396 89 141.385 89H191.119C201.107 89 209.204 96.7511 209.204 106.313V360.809C209.204 370.37 201.107 378.121 191.119 378.121H141.385C131.396 378.121 123.299 370.37 123.299 360.809V106.313Z" fill="white"/>
  <path d="M52.3083 297.618C31.6625 297.618 24.5537 270.139 42.6093 260.127L123.299 215.382H457.42C478.214 215.382 485.199 243.175 466.876 253.006L383.727 297.618H52.3083Z" fill="white"/>
  <path d="M299.631 152.191C299.631 142.63 307.728 134.879 317.716 134.879H367.451C377.439 134.879 385.536 142.63 385.536 152.191V406.687C385.536 416.249 377.439 424 367.451 424H317.716C307.728 424 299.631 416.249 299.631 406.687V152.191Z" fill="white"/>
  <!-- Border inset 20px agar tidak ke-clip saat diraster -->
  <rect x="20" y="20" width="472" height="472" rx="50" fill="none" stroke="#FFFCFC" stroke-width="20"/>
</svg>
