<svg width="512" height="512" viewBox="0 0 512 512" fill="none" xmlns="http://www.w3.org/2000/svg">
<rect x="10" y="10" width="492" height="492" rx="50" fill="#02040A"/>
<rect x="10" y="10" width="492" height="492" rx="50" stroke="url(#paint0_linear_192_296)" stroke-width="20"/>
<mask id="path-2-outside-1_192_296" maskUnits="userSpaceOnUse" x="61" y="168" width="397" height="163" fill="black">
<rect fill="white" x="61" y="168" width="397" height="163"/>
<path d="M88.75 330H67.5C64 330 62.25 328.25 62.25 324.75V174.5C62.25 171 64 169.25 67.5 169.25H88.75C92.25 169.25 94 171 94 174.5V233.25C94 235.083 95 236 97 236H139.25C141.083 236 142 235.083 142 233.25V174.5C142 171 143.75 169.25 147.25 169.25H168.5C172 169.25 173.75 171 173.75 174.5V324.75C173.75 328.25 172 330 168.5 330H147.25C143.75 330 142 328.25 142 324.75V266.25C142 264.417 141.083 263.5 139.25 263.5H97C95 263.5 94 264.417 94 266.25V324.75C94 328.25 92.25 330 88.75 330ZM223.043 330H199.043C196.043 330 195.043 328.25 196.043 324.75L235.543 174.5C236.71 171 239.21 169.25 243.043 169.25H276.293C280.46 169.25 282.96 171 283.793 174.5L323.293 324.75C324.293 328.25 323.293 330 320.293 330H296.293C294.46 330 293.21 329.667 292.543 329C291.876 328.167 291.376 326.75 291.043 324.75L284.043 297.25H235.293L228.293 324.75C227.96 326.75 227.376 328.167 226.543 329C225.876 329.667 224.71 330 223.043 330ZM259.293 199.5L241.293 271.75H278.293L260.293 199.5H259.293ZM371.953 330H350.703C347.203 330 345.453 328.25 345.453 324.75V174.5C345.453 171 347.203 169.25 350.703 169.25H410.203C423.203 169.25 433.37 172.833 440.703 180C448.036 187.167 451.703 197.25 451.703 210.25V229.75C451.703 248.583 444.286 261.083 429.453 267.25V268.25L456.203 324C457.703 328 456.286 330 451.953 330H431.703C428.703 330 426.536 329.667 425.203 329C423.87 328.333 422.786 326.917 421.953 324.75L396.953 270.75H380.203C378.203 270.75 377.203 271.667 377.203 273.5V324.75C377.203 328.25 375.453 330 371.953 330ZM379.953 245.25H404.453C409.786 245.25 413.703 244.167 416.203 242C418.703 239.667 419.953 236 419.953 231V211.5C419.953 206.333 418.703 202.583 416.203 200.25C413.703 197.917 409.786 196.75 404.453 196.75H379.953C378.12 196.75 377.203 197.667 377.203 199.5V242.5C377.203 244.333 378.12 245.25 379.953 245.25Z"/>
</mask>
<path d="M88.75 330H67.5C64 330 62.25 328.25 62.25 324.75V174.5C62.25 171 64 169.25 67.5 169.25H88.75C92.25 169.25 94 171 94 174.5V233.25C94 235.083 95 236 97 236H139.25C141.083 236 142 235.083 142 233.25V174.5C142 171 143.75 169.25 147.25 169.25H168.5C172 169.25 173.75 171 173.75 174.5V324.75C173.75 328.25 172 330 168.5 330H147.25C143.75 330 142 328.25 142 324.75V266.25C142 264.417 141.083 263.5 139.25 263.5H97C95 263.5 94 264.417 94 266.25V324.75C94 328.25 92.25 330 88.75 330ZM223.043 330H199.043C196.043 330 195.043 328.25 196.043 324.75L235.543 174.5C236.71 171 239.21 169.25 243.043 169.25H276.293C280.46 169.25 282.96 171 283.793 174.5L323.293 324.75C324.293 328.25 323.293 330 320.293 330H296.293C294.46 330 293.21 329.667 292.543 329C291.876 328.167 291.376 326.75 291.043 324.75L284.043 297.25H235.293L228.293 324.75C227.96 326.75 227.376 328.167 226.543 329C225.876 329.667 224.71 330 223.043 330ZM259.293 199.5L241.293 271.75H278.293L260.293 199.5H259.293ZM371.953 330H350.703C347.203 330 345.453 328.25 345.453 324.75V174.5C345.453 171 347.203 169.25 350.703 169.25H410.203C423.203 169.25 433.37 172.833 440.703 180C448.036 187.167 451.703 197.25 451.703 210.25V229.75C451.703 248.583 444.286 261.083 429.453 267.25V268.25L456.203 324C457.703 328 456.286 330 451.953 330H431.703C428.703 330 426.536 329.667 425.203 329C423.87 328.333 422.786 326.917 421.953 324.75L396.953 270.75H380.203C378.203 270.75 377.203 271.667 377.203 273.5V324.75C377.203 328.25 375.453 330 371.953 330ZM379.953 245.25H404.453C409.786 245.25 413.703 244.167 416.203 242C418.703 239.667 419.953 236 419.953 231V211.5C419.953 206.333 418.703 202.583 416.203 200.25C413.703 197.917 409.786 196.75 404.453 196.75H379.953C378.12 196.75 377.203 197.667 377.203 199.5V242.5C377.203 244.333 378.12 245.25 379.953 245.25Z" fill="url(#paint1_linear_192_296)"/>
<path d="M88.75 330V329H67.5V330V331H88.75V330ZM67.5 330V329C65.9041 329 64.8909 328.602 64.2696 327.98C63.6483 327.359 63.25 326.346 63.25 324.75H62.25H61.25C61.25 326.654 61.7267 328.266 62.8554 329.395C63.9841 330.523 65.5959 331 67.5 331V330ZM62.25 324.75H63.25V174.5H62.25H61.25V324.75H62.25ZM62.25 174.5H63.25C63.25 172.904 63.6483 171.891 64.2696 171.27C64.8909 170.648 65.9041 170.25 67.5 170.25V169.25V168.25C65.5959 168.25 63.9841 168.727 62.8554 169.855C61.7267 170.984 61.25 172.596 61.25 174.5H62.25ZM67.5 169.25V170.25H88.75V169.25V168.25H67.5V169.25ZM88.75 169.25V170.25C90.3459 170.25 91.3591 170.648 91.9804 171.27C92.6017 171.891 93 172.904 93 174.5H94H95C95 172.596 94.5233 170.984 93.3946 169.855C92.2659 168.727 90.6541 168.25 88.75 168.25V169.25ZM94 174.5H93V233.25H94H95V174.5H94ZM94 233.25H93C93 234.344 93.3025 235.342 94.0743 236.05C94.8296 236.742 95.8664 237 97 237V236V235C96.1336 235 95.6704 234.8 95.4257 234.575C95.1975 234.366 95 233.989 95 233.25H94ZM97 236V237H139.25V236V235H97V236ZM139.25 236V237C140.321 237 141.308 236.732 142.02 236.02C142.732 235.308 143 234.321 143 233.25H142H141C141 234.013 140.81 234.401 140.605 234.605C140.401 234.81 140.013 235 139.25 235V236ZM142 233.25H143V174.5H142H141V233.25H142ZM142 174.5H143C143 172.904 143.398 171.891 144.02 171.27C144.641 170.648 145.654 170.25 147.25 170.25V169.25V168.25C145.346 168.25 143.734 168.727 142.605 169.855C141.477 170.984 141 172.596 141 174.5H142ZM147.25 169.25V170.25H168.5V169.25V168.25H147.25V169.25ZM168.5 169.25V170.25C170.096 170.25 171.109 170.648 171.73 171.27C172.352 171.891 172.75 172.904 172.75 174.5H173.75H174.75C174.75 172.596 174.273 170.984 173.145 169.855C172.016 168.727 170.404 168.25 168.5 168.25V169.25ZM173.75 174.5H172.75V324.75H173.75H174.75V174.5H173.75ZM173.75 324.75H172.75C172.75 326.346 172.352 327.359 171.73 327.98C171.109 328.602 170.096 329 168.5 329V330V331C170.404 331 172.016 330.523 173.145 329.395C174.273 328.266 174.75 326.654 174.75 324.75H173.75ZM168.5 330V329H147.25V330V331H168.5V330ZM147.25 330V329C145.654 329 144.641 328.602 144.02 327.98C143.398 327.359 143 326.346 143 324.75H142H141C141 326.654 141.477 328.266 142.605 329.395C143.734 330.523 145.346 331 147.25 331V330ZM142 324.75H143V266.25H142H141V324.75H142ZM142 266.25H143C143 265.179 142.732 264.192 142.02 263.48C141.308 262.768 140.321 262.5 139.25 262.5V263.5V264.5C140.013 264.5 140.401 264.69 140.605 264.895C140.81 265.099 141 265.487 141 266.25H142ZM139.25 263.5V262.5H97V263.5V264.5H139.25V263.5ZM97 263.5V262.5C95.8664 262.5 94.8296 262.758 94.0743 263.45C93.3025 264.158 93 265.156 93 266.25H94H95C95 265.511 95.1975 265.134 95.4257 264.925C95.6704 264.7 96.1336 264.5 97 264.5V263.5ZM94 266.25H93V324.75H94H95V266.25H94ZM94 324.75H93C93 326.346 92.6017 327.359 91.9804 327.98C91.3591 328.602 90.3459 329 88.75 329V330V331C90.6541 331 92.2659 330.523 93.3946 329.395C94.5233 328.266 95 326.654 95 324.75H94ZM196.043 324.75L197.004 325.025L197.007 325.015L197.01 325.004L196.043 324.75ZM235.543 174.5L234.594 174.184L234.584 174.214L234.576 174.246L235.543 174.5ZM283.793 174.5L282.82 174.732L282.823 174.743L282.826 174.754L283.793 174.5ZM323.293 324.75L322.326 325.004L322.329 325.015L322.331 325.025L323.293 324.75ZM292.543 329L291.762 329.625L291.797 329.668L291.836 329.707L292.543 329ZM291.043 324.75L292.029 324.586L292.022 324.544L292.012 324.503L291.043 324.75ZM284.043 297.25L285.012 297.003L284.82 296.25H284.043V297.25ZM235.293 297.25V296.25H234.516L234.324 297.003L235.293 297.25ZM228.293 324.75L227.324 324.503L227.313 324.544L227.307 324.586L228.293 324.75ZM226.543 329L227.25 329.707L227.25 329.707L226.543 329ZM259.293 199.5V198.5H258.512L258.323 199.258L259.293 199.5ZM241.293 271.75L240.323 271.508L240.013 272.75H241.293V271.75ZM278.293 271.75V272.75H279.573L279.263 271.508L278.293 271.75ZM260.293 199.5L261.263 199.258L261.074 198.5H260.293V199.5ZM223.043 330V329H199.043V330V331H223.043V330ZM199.043 330V329C197.71 329 197.155 328.618 196.911 328.191C196.619 327.68 196.524 326.707 197.004 325.025L196.043 324.75L195.081 324.475C194.562 326.293 194.467 327.945 195.175 329.184C195.931 330.507 197.376 331 199.043 331V330ZM196.043 324.75L197.01 325.004L236.51 174.754L235.543 174.5L234.576 174.246L195.076 324.496L196.043 324.75ZM235.543 174.5L236.492 174.816C237.022 173.226 237.826 172.11 238.866 171.382C239.91 170.651 241.279 170.25 243.043 170.25V169.25V168.25C240.974 168.25 239.176 168.724 237.72 169.743C236.259 170.765 235.231 172.274 234.594 174.184L235.543 174.5ZM243.043 169.25V170.25H276.293V169.25V168.25H243.043V169.25ZM276.293 169.25V170.25C278.244 170.25 279.689 170.66 280.72 171.382C281.734 172.092 282.449 173.175 282.82 174.732L283.793 174.5L284.766 174.268C284.303 172.325 283.352 170.783 281.866 169.743C280.397 168.715 278.508 168.25 276.293 168.25V169.25ZM283.793 174.5L282.826 174.754L322.326 325.004L323.293 324.75L324.26 324.496L284.76 174.246L283.793 174.5ZM323.293 324.75L322.331 325.025C322.812 326.707 322.717 327.68 322.425 328.191C322.181 328.618 321.626 329 320.293 329V330V331C321.96 331 323.405 330.507 324.161 329.184C324.869 327.945 324.774 326.293 324.255 324.475L323.293 324.75ZM320.293 330V329H296.293V330V331H320.293V330ZM296.293 330V329C294.504 329 293.616 328.659 293.25 328.293L292.543 329L291.836 329.707C292.803 330.674 294.415 331 296.293 331V330ZM292.543 329L293.324 328.375C292.822 327.749 292.356 326.544 292.029 324.586L291.043 324.75L290.057 324.914C290.397 326.956 290.93 328.585 291.762 329.625L292.543 329ZM291.043 324.75L292.012 324.503L285.012 297.003L284.043 297.25L283.074 297.497L290.074 324.997L291.043 324.75ZM284.043 297.25V296.25H235.293V297.25V298.25H284.043V297.25ZM235.293 297.25L234.324 297.003L227.324 324.503L228.293 324.75L229.262 324.997L236.262 297.497L235.293 297.25ZM228.293 324.75L227.307 324.586C226.985 326.512 226.449 327.68 225.836 328.293L226.543 329L227.25 329.707C228.303 328.654 228.934 326.988 229.279 324.914L228.293 324.75ZM226.543 329L225.836 328.293C225.457 328.672 224.632 329 223.043 329V330V331C224.787 331 226.295 330.662 227.25 329.707L226.543 329ZM259.293 199.5L258.323 199.258L240.323 271.508L241.293 271.75L242.263 271.992L260.263 199.742L259.293 199.5ZM241.293 271.75V272.75H278.293V271.75V270.75H241.293V271.75ZM278.293 271.75L279.263 271.508L261.263 199.258L260.293 199.5L259.323 199.742L277.323 271.992L278.293 271.75ZM260.293 199.5V198.5H259.293V199.5V200.5H260.293V199.5ZM429.453 267.25L429.069 266.327L428.453 266.583V267.25H429.453ZM429.453 268.25H428.453V268.477L428.552 268.683L429.453 268.25ZM456.203 324L457.139 323.649L457.124 323.607L457.105 323.567L456.203 324ZM425.203 329L424.756 329.894L424.756 329.894L425.203 329ZM421.953 324.75L422.886 324.391L422.875 324.36L422.861 324.33L421.953 324.75ZM396.953 270.75L397.861 270.33L397.592 269.75H396.953V270.75ZM416.203 242L416.858 242.756L416.872 242.744L416.885 242.731L416.203 242ZM416.203 200.25L416.885 199.519L416.885 199.519L416.203 200.25ZM371.953 330V329H350.703V330V331H371.953V330ZM350.703 330V329C349.107 329 348.094 328.602 347.473 327.98C346.851 327.359 346.453 326.346 346.453 324.75H345.453H344.453C344.453 326.654 344.93 328.266 346.059 329.395C347.187 330.523 348.799 331 350.703 331V330ZM345.453 324.75H346.453V174.5H345.453H344.453V324.75H345.453ZM345.453 174.5H346.453C346.453 172.904 346.851 171.891 347.473 171.27C348.094 170.648 349.107 170.25 350.703 170.25V169.25V168.25C348.799 168.25 347.187 168.727 346.059 169.855C344.93 170.984 344.453 172.596 344.453 174.5H345.453ZM350.703 169.25V170.25H410.203V169.25V168.25H350.703V169.25ZM410.203 169.25V170.25C423.015 170.25 432.904 173.777 440.004 180.715L440.703 180L441.402 179.285C433.835 171.89 423.391 168.25 410.203 168.25V169.25ZM440.703 180L440.004 180.715C447.097 187.646 450.703 197.443 450.703 210.25H451.703H452.703C452.703 197.057 448.976 186.687 441.402 179.285L440.703 180ZM451.703 210.25H450.703V229.75H451.703H452.703V210.25H451.703ZM451.703 229.75H450.703C450.703 239.039 448.874 246.683 445.281 252.74C441.694 258.785 436.309 263.317 429.069 266.327L429.453 267.25L429.837 268.173C437.431 265.016 443.171 260.215 447.001 253.76C450.824 247.317 452.703 239.294 452.703 229.75H451.703ZM429.453 267.25H428.453V268.25H429.453H430.453V267.25H429.453ZM429.453 268.25L428.552 268.683L455.302 324.433L456.203 324L457.105 323.567L430.355 267.817L429.453 268.25ZM456.203 324L455.267 324.351C455.986 326.269 455.859 327.344 455.45 327.922C455.035 328.507 454.038 329 451.953 329V330V331C454.202 331 456.08 330.493 457.082 329.078C458.089 327.656 457.92 325.731 457.139 323.649L456.203 324ZM451.953 330V329H431.703V330V331H451.953V330ZM431.703 330V329C428.732 329 426.764 328.662 425.65 328.106L425.203 329L424.756 329.894C426.309 330.671 428.674 331 431.703 331V330ZM425.203 329L425.65 328.106C424.636 327.598 423.678 326.449 422.886 324.391L421.953 324.75L421.02 325.109C421.895 327.384 423.103 329.068 424.756 329.894L425.203 329ZM421.953 324.75L422.861 324.33L397.861 270.33L396.953 270.75L396.046 271.17L421.046 325.17L421.953 324.75ZM396.953 270.75V269.75H380.203V270.75V271.75H396.953V270.75ZM380.203 270.75V269.75C379.069 269.75 378.033 270.008 377.277 270.7C376.506 271.408 376.203 272.406 376.203 273.5H377.203H378.203C378.203 272.761 378.401 272.384 378.629 272.175C378.874 271.95 379.337 271.75 380.203 271.75V270.75ZM377.203 273.5H376.203V324.75H377.203H378.203V273.5H377.203ZM377.203 324.75H376.203C376.203 326.346 375.805 327.359 375.184 327.98C374.562 328.602 373.549 329 371.953 329V330V331C373.857 331 375.469 330.523 376.598 329.395C377.726 328.266 378.203 326.654 378.203 324.75H377.203ZM379.953 245.25V246.25H404.453V245.25V244.25H379.953V245.25ZM404.453 245.25V246.25C409.889 246.25 414.094 245.152 416.858 242.756L416.203 242L415.548 241.244C413.313 243.182 409.684 244.25 404.453 244.25V245.25ZM416.203 242L416.885 242.731C419.666 240.136 420.953 236.148 420.953 231H419.953H418.953C418.953 235.852 417.74 239.198 415.521 241.269L416.203 242ZM419.953 231H420.953V211.5H419.953H418.953V231H419.953ZM419.953 211.5H420.953C420.953 206.197 419.672 202.12 416.885 199.519L416.203 200.25L415.521 200.981C417.734 203.047 418.953 206.469 418.953 211.5H419.953ZM416.203 200.25L416.885 199.519C414.12 196.938 409.903 195.75 404.453 195.75V196.75V197.75C409.67 197.75 413.286 198.895 415.521 200.981L416.203 200.25ZM404.453 196.75V195.75H379.953V196.75V197.75H404.453V196.75ZM379.953 196.75V195.75C378.882 195.75 377.896 196.018 377.184 196.73C376.472 197.442 376.203 198.429 376.203 199.5H377.203H378.203C378.203 198.737 378.393 198.349 378.598 198.145C378.802 197.94 379.191 197.75 379.953 197.75V196.75ZM377.203 199.5H376.203V242.5H377.203H378.203V199.5H377.203ZM377.203 242.5H376.203C376.203 243.571 376.472 244.558 377.184 245.27C377.896 245.982 378.882 246.25 379.953 246.25V245.25V244.25C379.191 244.25 378.802 244.06 378.598 243.855C378.393 243.651 378.203 243.263 378.203 242.5H377.203Z" fill="black" mask="url(#path-2-outside-1_192_296)"/>
<defs>
<linearGradient id="paint0_linear_192_296" x1="296" y1="212" x2="500" y2="23" gradientUnits="userSpaceOnUse">
<stop offset="0.0498102" stop-color="#3E3E3E"/>
<stop offset="1" stop-color="#A4A4A4"/>
</linearGradient>
<linearGradient id="paint1_linear_192_296" x1="238" y1="296" x2="441.126" y2="126.549" gradientUnits="userSpaceOnUse">
<stop stop-color="#3E3E3E"/>
<stop offset="1" stop-color="#A4A4A4"/>
</linearGradient>
</defs>
</svg>
